<svg width="140" height="140" xmlns="http://www.w3.org/2000/svg" preserveAspectRatio="xMidYMid meet">
 <metadata>Created by potrace 1.10, written by Peter Selinger 2001-2011</metadata>

 <g>
  <title>background</title>
  <rect fill="none" id="canvas_background" height="7.498669" width="7.498669" y="-1" x="-1"/>
 </g>
 <g>
  <title>Layer 1</title>
  <g id="svg_1" fill="#404148" transform="translate(0,140) scale(0.10000000149011612,-0.10000000149011612) ">
   <path stroke="null" id="svg_2" d="m498.558607,1077.204665c-43.558593,-26.273437 -43.558593,-24.890625 -43.558593,-340.17187c0,-271.031246 0.691406,-286.933589 13.828125,-307.675776c26.964843,-44.941406 15.902343,-43.558593 428.671868,-43.558593c412.769525,0 401.707025,-1.382812 428.671868,43.558593c13.136719,20.742187 13.828125,36.644531 13.828125,307.675776c0,315.281245 0,313.898433 -43.558593,340.17187c-21.433593,13.136719 -37.335937,13.828125 -398.9414,13.828125c-361.605463,0 -377.507807,-0.691406 -398.9414,-13.828125zm235.078121,-192.902341c86.42578,-53.23828 160.406247,-97.48828 163.863279,-97.48828c4.839844,0 259.968746,155.566404 337.406245,206.039059l15.210937,9.679687l0,-44.249999l0,-44.941406l-170.777341,-105.785155c-94.722655,-58.76953 -176.308591,-106.476561 -181.839841,-106.476561c-5.53125,0 -87.117186,47.70703 -181.148435,106.476561l-171.468747,105.785155l0,44.941406l0,44.249999l15.902343,-9.679687c8.296875,-6.222656 85.734374,-54.621093 172.85156,-108.55078z"/>
  </g>
 </g>
</svg>